<svg version="1.1" id="Layer_1" xmlns="http://www.w3.org/2000/svg" xmlns:xlink="http://www.w3.org/1999/xlink" x="0px" y="0px"
	 width="100%" viewBox="0 0 896 659" enable-background="new 0 0 896 659" xml:space="preserve">
<path fill="#ffffff" opacity="1.000000" stroke="none" 
	d="
M667.036011,123.000000 
	C667.035828,282.603058 667.037903,441.706146 667.031555,600.809204 
	C667.031006,615.088501 657.529297,624.718201 644.233948,623.979614 
	C634.575500,623.443176 626.208435,615.833252 624.830322,606.220093 
	C624.524597,604.087769 624.443420,601.907593 624.443237,599.749451 
	C624.426208,418.321960 624.513062,236.894363 624.283203,55.467152 
	C624.262268,38.905579 637.160522,29.533562 649.497070,31.829020 
	C659.598572,33.708611 666.970398,42.196049 667.009216,53.028332 
	C667.092163,76.185287 667.035461,99.342751 667.036011,123.000000 
z"/>
<path fill="#ffffff" opacity="1.000000" stroke="none" 
	d="
M237.963882,375.000000 
	C237.964066,282.871613 237.958557,191.243240 237.970947,99.614868 
	C237.972687,86.741966 245.165985,78.019836 256.834412,76.604546 
	C268.091858,75.239113 278.513885,83.136902 280.149445,94.354607 
	C280.460266,96.486412 280.555664,98.666473 280.555908,100.824295 
	C280.573944,252.261017 280.575775,403.697723 280.566284,555.134460 
	C280.565399,569.355225 272.014832,578.952576 259.398376,579.006348 
	C247.529541,579.056946 238.172409,569.982544 238.009705,557.923218 
	C237.841171,545.430664 237.964554,532.934143 237.964294,520.439392 
	C237.963287,472.126251 237.963882,423.813141 237.963882,375.000000 
z"/>
<path fill="#ffffff" opacity="1.000000" stroke="none" 
	d="
M334.628143,258.999756 
	C334.628632,228.338852 334.582428,198.177856 334.652466,168.017136 
	C334.680817,155.820099 341.348267,147.517487 352.393860,145.505356 
	C364.286041,143.338989 376.127563,152.487442 377.014648,164.547440 
	C377.112244,165.874680 377.095001,167.211929 377.095032,168.544540 
	C377.098083,274.857483 376.943848,381.170898 377.280640,487.482788 
	C377.325653,501.696381 364.339447,514.509094 348.543640,508.860962 
	C340.362640,505.935699 335.564056,499.817017 334.767395,490.949554 
	C334.588989,488.963715 334.633392,486.954773 334.633240,484.956451 
	C334.627289,409.804230 334.628174,334.651978 334.628143,258.999756 
z"/>
<path fill="#ffffff" opacity="1.000000" stroke="none" 
	d="
M527.901978,270.999939 
	C527.904480,235.668854 527.845825,200.837570 527.946106,166.006775 
	C527.976929,155.305634 535.880676,146.758011 546.585144,145.285904 
	C556.391785,143.937271 566.387817,150.313263 569.330322,160.098755 
	C570.128784,162.754166 570.329895,165.673630 570.331116,168.472107 
	C570.378662,274.798584 570.380676,381.125092 570.356323,487.451599 
	C570.353638,499.375427 563.010681,508.587646 552.633972,509.974884 
	C541.355286,511.482727 531.287476,505.080902 528.590393,494.404572 
	C527.910278,491.712311 527.929504,488.798431 527.928223,485.986267 
	C527.895081,414.490845 527.902039,342.995392 527.901978,270.999939 
z"/>
<path fill="#ffffff" opacity="1.000000" stroke="none" 
	d="
M56.452847,159.190399 
	C69.062492,152.343872 87.477966,161.103210 87.345879,180.680893 
	C86.883896,249.152237 87.166939,317.628601 87.166924,386.103058 
	C87.166916,415.758667 87.154587,445.414246 87.175476,475.069855 
	C87.180618,482.370514 85.386246,488.772583 79.415222,493.666290 
	C72.779449,499.104767 65.365898,499.903442 57.871803,496.826660 
	C50.153824,493.657928 45.364109,487.651733 44.915558,478.883698 
	C44.839012,477.387360 44.836609,475.886139 44.836555,474.387177 
	C44.832993,376.590332 44.886295,278.793427 44.748779,180.996750 
	C44.735413,171.490311 47.639957,164.117569 56.452847,159.190399 
z"/>
<path fill="#ffffff" opacity="1.000000" stroke="none" 
	d="
M763.777466,320.000153 
	C763.778503,362.817352 763.813538,405.134552 763.762573,447.451660 
	C763.744141,462.743561 752.564636,472.603729 738.282715,470.131500 
	C728.813293,468.492340 721.508240,460.070282 721.083008,450.189636 
	C720.954163,447.196136 721.048401,444.192841 721.048035,441.194031 
	C721.039062,363.557129 721.027954,285.920227 721.026917,208.283310 
	C721.026733,197.291260 726.332825,189.095291 735.382019,186.005829 
	C744.007629,183.060974 753.401733,185.868576 759.155701,193.098480 
	C762.763184,197.631363 763.799072,202.896851 763.794189,208.542633 
	C763.762329,245.528442 763.777588,282.514282 763.777466,320.000153 
z"/>
<path fill="#ffffff" opacity="1.000000" stroke="none" 
	d="
M473.839172,345.000092 
	C473.839111,369.976196 473.884033,394.452393 473.820679,418.928284 
	C473.787201,431.859558 466.886261,440.549774 455.681000,442.080627 
	C442.136017,443.931183 431.669189,434.735992 431.205750,420.340820 
	C430.975464,413.188507 431.161102,406.022797 431.161041,398.863129 
	C431.160614,344.915863 431.147156,290.968597 431.171082,237.021317 
	C431.176605,224.558502 436.482574,216.887558 446.943848,213.946152 
	C459.835876,210.321274 472.777679,219.258224 473.688080,232.615295 
	C474.038361,237.754486 473.833344,242.933380 473.834747,248.094193 
	C473.843597,280.229492 473.839172,312.364777 473.839172,345.000092 
z"/>
<path fill="#ffffff" opacity="1.000000" stroke="none" 
	d="
M141.163879,344.999908 
	C141.163895,312.668243 140.986786,280.834625 141.344910,249.007019 
	C141.402054,243.927399 142.901489,238.325745 145.419220,233.930710 
	C149.854233,226.188736 159.088898,223.171951 167.611740,225.229095 
	C176.124527,227.283783 182.823120,235.047241 183.841537,244.095093 
	C183.990158,245.415527 183.996307,246.756790 183.996490,248.088425 
	C184.003723,301.252258 184.033051,354.416107 183.984161,407.579865 
	C183.969421,423.604797 171.158783,434.025757 156.662201,429.997040 
	C147.137726,427.350159 141.229614,418.920776 141.186218,407.496582 
	C141.107727,386.831299 141.163925,366.165527 141.163879,344.999908 
z"/>
<path fill="#ffffff" opacity="1.000000" stroke="none" 
	d="
M858.303101,271.980408 
	C859.062988,275.410339 860.145386,278.484741 860.157715,281.563385 
	C860.281921,312.533997 860.324097,343.505676 860.180054,374.476135 
	C860.126709,385.945984 852.124451,394.567871 841.083740,395.778198 
	C830.983582,396.885406 821.114502,390.066467 818.524353,379.998230 
	C817.953186,377.777802 817.841797,375.390625 817.838562,373.079803 
	C817.796143,342.774780 817.780151,312.469604 817.828125,282.164612 
	C817.845581,271.126068 823.689880,263.087585 833.385132,260.427246 
	C843.221680,257.728180 852.407776,261.885986 858.303101,271.980408 
z"/>
</svg>